<svg xmlns="http://www.w3.org/2000/svg" width="600" height="600" viewBox="0 0 600 600"><g transform="translate(-4820 -7846)"><rect width="600" height="600" rx="90" transform="translate(4820 7846)" fill="#ff997d"/><g transform="translate(983.764 -0.493)"><path d="M-89.062,3.461a158.9,158.9,0,0,0,20.8-1.392A152.95,152.95,0,0,0-50.1-1.3q7.617-1.978,13.843-4.028a99.8,99.8,0,0,0,9.448-3.516l3.223-1.318.586-.879-1.9-7.471-1.465-6.445q-.439-1.758-1.025-5.127t-.952-6.519q-.366-3.149-.659-7.69l-3.076-.293Q-48.926-10.748-93.164-10.748a51.431,51.431,0,0,1-16.04-2.71A59.6,59.6,0,0,1-126.05-22.54a72.606,72.606,0,0,1-15.308-15.6q-6.738-9.229-10.986-23.73A113.3,113.3,0,0,1-156.592-93.8a126.231,126.231,0,0,1,2.637-25.928,98.08,98.08,0,0,1,8.276-23.877,81.425,81.425,0,0,1,13.7-19.775,58.052,58.052,0,0,1,19.482-13.4A62.436,62.436,0,0,1-87.6-181.7q20.8,0,34.424,6.592t29.59,24.316l7.178-5.713q-30.908-40.43-73.828-40.43a106.714,106.714,0,0,0-34.79,5.493,86.593,86.593,0,0,0-27.393,14.868,93.141,93.141,0,0,0-19.336,21.9,97.7,97.7,0,0,0-11.865,26.514A106.609,106.609,0,0,0-187.5-99.518a102.774,102.774,0,0,0,8.276,40.869,101.961,101.961,0,0,0,21.9,32.813A104.517,104.517,0,0,0-125.83-4.449,89.957,89.957,0,0,0-89.062,3.461Z" transform="matrix(-0.978, 0.208, -0.208, -0.978, 3900.385, 8107.089)" fill="#1f1f1f"/><path d="M-89.062-197.461a158.9,158.9,0,0,1,20.8,1.392A152.95,152.95,0,0,1-50.1-192.7q7.617,1.978,13.843,4.028a99.8,99.8,0,0,1,9.448,3.516l3.223,1.318.586.879-1.9,7.471-1.465,6.445q-.439,1.758-1.025,5.127t-.952,6.519q-.366,3.149-.659,7.69l-3.076.293q-16.846-33.838-61.084-33.838a51.431,51.431,0,0,0-16.04,2.71,59.6,59.6,0,0,0-16.846,9.082,72.606,72.606,0,0,0-15.308,15.6q-6.738,9.229-10.986,23.73a113.3,113.3,0,0,0-4.248,31.934,126.231,126.231,0,0,0,2.637,25.928,98.08,98.08,0,0,0,8.276,23.877,81.425,81.425,0,0,0,13.7,19.775,58.052,58.052,0,0,0,19.482,13.4A62.436,62.436,0,0,0-87.6-12.3q20.8,0,34.424-6.592t29.59-24.316l7.178,5.713Q-47.314,2.93-90.234,2.93a106.714,106.714,0,0,1-34.79-5.493,86.593,86.593,0,0,1-27.393-14.868,93.141,93.141,0,0,1-19.336-21.9,97.7,97.7,0,0,1-11.865-26.514A106.609,106.609,0,0,1-187.5-94.482a102.774,102.774,0,0,1,8.276-40.869,101.961,101.961,0,0,1,21.9-32.812,104.517,104.517,0,0,1,31.494-21.387A89.957,89.957,0,0,1-89.062-197.461Z" transform="translate(4304.641 8306.768) rotate(20)" fill="#1f1f1f"/><path d="M-148.75-210.509q0-55.226-3.719-68.165h-52.295q-23.707,0-33.934,2.44l-9.994,2.44-.93-1.859q1.395-11.156,0-31.377l.93-1.395a242.158,242.158,0,0,0,28.588,1.395H-36.49A242.158,242.158,0,0,0-7.9-308.424l.93,1.395q-1.395,20.221,0,31.377l-.93,1.859q-32.772-6.508-96.223-6.508-3.719,13.016-3.719,68.564V-95.293q0,59.5,4.881,95.293l-1.162,1.395Q-112.725,0-128.3,0t-24.172,1.395L-153.631,0q4.881-33.737,4.881-94.741Z" transform="translate(4258.574 8297.5)" fill="#1f1f1f"/></g></g></svg>