<?xml version="1.0" standalone="no"?>
<!DOCTYPE svg PUBLIC "-//W3C//DTD SVG 20010904//EN"
 "http://www.w3.org/TR/2001/REC-SVG-20010904/DTD/svg10.dtd">
<svg version="1.0" xmlns="http://www.w3.org/2000/svg"
 width="700.000000pt" height="700.000000pt" viewBox="0 0 700.000000 700.000000"
 preserveAspectRatio="xMidYMid meet">
<metadata>
Created by potrace 1.14, written by Peter Selinger 2001-2017
</metadata>
<g transform="translate(0.000000,700.000000) scale(0.100000,-0.100000)"
fill="#000000" stroke="none">
<path d="M2019 5327 c-3 -48 0 -389 4 -393 2 -2 42 5 88 16 124 29 313 40 695
40 l342 0 6 -32 c27 -137 31 -313 31 -1453 0 -1197 -3 -1342 -40 -1655 -7 -63
-10 -118 -7 -122 4 -3 71 -3 150 2 78 5 206 5 285 0 78 -5 145 -5 149 -2 4 4
1 63 -7 132 -8 69 -19 197 -26 285 -16 226 -24 2152 -10 2473 11 236 24 369
39 384 9 9 571 -8 737 -22 72 -7 186 -20 255 -30 69 -10 127 -17 129 -15 1 2
4 93 4 202 l2 198 -105 -5 c-164 -8 -2545 -6 -2637 2 -62 6 -83 4 -84 -5z"/>
<path d="M1790 4225 c-107 -20 -264 -68 -376 -117 -154 -65 -374 -191 -374
-213 0 -6 24 -65 54 -130 30 -66 62 -146 71 -177 26 -92 49 -90 83 10 82 236
283 395 575 457 237 51 486 -38 673 -238 277 -297 375 -869 218 -1267 -110
-279 -334 -435 -672 -469 -209 -21 -359 22 -579 165 l-82 53 -31 -40 c-18 -21
-30 -44 -28 -49 8 -25 173 -136 283 -190 153 -76 244 -101 405 -107 200 -8
385 36 582 139 256 134 442 366 523 651 119 423 -11 893 -334 1205 -260 252
-654 378 -991 317z"/>
<path d="M4804 4210 c-646 -66 -1123 -625 -1091 -1279 14 -292 155 -583 364
-753 137 -112 267 -183 423 -233 118 -38 200 -48 344 -42 141 5 238 28 377 87
86 36 209 108 209 121 0 5 -11 27 -25 49 l-25 40 -50 -25 c-148 -75 -321 -125
-436 -125 -132 0 -305 44 -439 113 -106 54 -235 181 -287 282 -73 143 -101
269 -100 455 0 357 169 746 414 956 70 60 162 111 267 148 79 27 97 30 221 30
128 0 139 -1 221 -32 132 -50 234 -115 325 -206 107 -107 151 -196 189 -378
10 -52 39 -35 79 46 20 41 63 115 96 165 33 50 60 97 60 105 0 17 -154 143
-267 218 -99 66 -292 164 -399 202 -144 50 -318 71 -470 56z"/>
</g>
</svg>
